<svg width="30" height="30" viewBox="0 0 30 30" fill="none" xmlns="http://www.w3.org/2000/svg">
<path d="M14.684 29.9445C6.25596 26.924 2.04207 18.3172 2.02344 6.98569C2.02274 6.55977 2.30504 6.1816 2.70899 6.0466C6.94701 4.63051 10.2458 2.97811 14.4532 0.165439C14.6248 0.0507121 14.825 -0.00430742 15.0241 0.000262887C15.208 0.00448163 15.3908 0.0595597 15.5493 0.165556C19.7538 2.977 23.0546 4.62946 27.2985 6.04766C27.6979 6.18108 27.9784 6.55385 27.9809 6.97496C28.0492 18.3167 23.7503 26.9224 15.3177 29.9446C15.1137 30.0185 14.8889 30.0184 14.684 29.9445Z" fill="#E6F3FF"/>
<path d="M15.3132 29.9444C23.7458 26.9222 28.0447 18.3166 27.9764 6.97477C27.9739 6.55371 27.6933 6.18088 27.294 6.04746C23.05 4.62932 19.7493 2.9768 15.5447 0.165293C15.3863 0.0592969 15.2034 0.00427734 15.0195 0V29.9988C15.1191 29.9964 15.2185 29.9788 15.3132 29.9444Z" fill="#B8D0E6"/>
<path d="M14.5891 25.6682C7.54405 22.255 6.14289 14.224 5.93459 9.7401C5.91614 9.33885 6.15496 8.96948 6.52949 8.82229C9.25106 7.75354 11.7847 6.47139 14.5038 4.78676C14.8069 4.59821 15.1904 4.59885 15.4935 4.78612C18.2125 6.47139 20.7469 7.75354 23.4697 8.82229C23.8441 8.96942 24.083 9.33885 24.0646 9.74075C23.8557 14.224 22.4532 22.2556 15.4081 25.6682C15.1478 25.7939 14.8493 25.7939 14.5891 25.6682Z" fill="#7BD921"/>
<path d="M23.4676 8.82246C20.7448 7.75371 18.2105 6.47156 15.4915 4.78629C15.3467 4.69682 15.1835 4.65053 15.0195 4.64648V25.7613C15.1515 25.758 15.2831 25.7277 15.4061 25.6683C22.4511 22.2557 23.8535 14.2242 24.0625 9.74086C24.081 9.33896 23.8422 8.96959 23.4676 8.82246Z" fill="#66B31B"/>
</svg>
