<svg width="124" height="15" viewBox="0 0 124 15" fill="none" xmlns="http://www.w3.org/2000/svg">
<path d="M15.5686 6.80311C15.748 6.67182 15.8811 6.48868 15.9492 6.27935C16.0172 6.07003 16.0169 5.84501 15.9483 5.63587C15.8796 5.42672 15.746 5.24393 15.5663 5.11312C15.3865 4.98231 15.1696 4.91005 14.9459 4.90646L10.6017 4.74524C10.5803 4.7438 10.5599 4.73631 10.5427 4.72369C10.5256 4.71107 10.5126 4.69386 10.5052 4.67412L9.004 0.691163C8.92857 0.488525 8.79158 0.313548 8.61157 0.189924C8.43156 0.0663003 8.21723 0 7.99759 0C7.77795 0 7.56361 0.0663003 7.3836 0.189924C7.20359 0.313548 7.0666 0.488525 6.99118 0.691163L5.49483 4.68834C5.48744 4.70808 5.47439 4.7253 5.45726 4.73792C5.44013 4.75054 5.41965 4.75802 5.39829 4.75947L1.05408 4.92068C0.830399 4.92427 0.613474 4.99654 0.433718 5.12735C0.253961 5.25815 0.120387 5.44095 0.0517238 5.65009C-0.0169391 5.85924 -0.0172472 6.08425 0.0508428 6.29358C0.118933 6.5029 0.252006 6.68605 0.431404 6.81733L3.8392 9.44893C3.85626 9.46211 3.86901 9.47992 3.87587 9.50014C3.88273 9.52037 3.88341 9.54213 3.87782 9.56273L2.70488 13.6453C2.6441 13.8532 2.64999 14.0744 2.72174 14.2789C2.7935 14.4834 2.92764 14.6612 3.10592 14.7881C3.2842 14.9151 3.49796 14.985 3.71812 14.9883C3.93828 14.9917 4.15416 14.9284 4.33637 14.807L7.93725 12.4361C7.95499 12.4241 7.97603 12.4177 7.99759 12.4177C8.01914 12.4177 8.04019 12.4241 8.05792 12.4361L11.6588 14.807C11.8386 14.9325 12.0537 15 12.2742 15C12.4948 15 12.7099 14.9325 12.8897 14.807C13.068 14.6812 13.2023 14.5043 13.274 14.3005C13.3457 14.0967 13.3514 13.8761 13.2903 13.669L12.1077 9.57221C12.1014 9.55164 12.1018 9.52968 12.1087 9.50931C12.1156 9.48895 12.1287 9.47117 12.1463 9.45841L15.5686 6.80311Z" fill="#FFB400"/>
<path d="M42.5686 6.80311C42.748 6.67182 42.8811 6.48868 42.9492 6.27935C43.0172 6.07003 43.0169 5.84501 42.9483 5.63587C42.8796 5.42672 42.746 5.24393 42.5663 5.11312C42.3865 4.98231 42.1696 4.91005 41.9459 4.90646L37.6017 4.74524C37.5803 4.7438 37.5599 4.73631 37.5427 4.72369C37.5256 4.71107 37.5126 4.69386 37.5052 4.67412L36.004 0.691163C35.9286 0.488525 35.7916 0.313548 35.6116 0.189924C35.4316 0.0663003 35.2172 0 34.9976 0C34.7779 0 34.5636 0.0663003 34.3836 0.189924C34.2036 0.313548 34.0666 0.488525 33.9912 0.691163L32.4948 4.68834C32.4874 4.70808 32.4744 4.7253 32.4573 4.73792C32.4401 4.75054 32.4197 4.75802 32.3983 4.75947L28.0541 4.92068C27.8304 4.92427 27.6135 4.99654 27.4337 5.12735C27.254 5.25815 27.1204 5.44095 27.0517 5.65009C26.9831 5.85924 26.9828 6.08425 27.0508 6.29358C27.1189 6.5029 27.252 6.68605 27.4314 6.81733L30.8392 9.44893C30.8563 9.46211 30.869 9.47992 30.8759 9.50014C30.8827 9.52037 30.8834 9.54213 30.8778 9.56273L29.7049 13.6453C29.6441 13.8532 29.65 14.0744 29.7217 14.2789C29.7935 14.4834 29.9276 14.6612 30.1059 14.7881C30.2842 14.9151 30.498 14.985 30.7181 14.9883C30.9383 14.9917 31.1542 14.9284 31.3364 14.807L34.9373 12.4361C34.955 12.4241 34.976 12.4177 34.9976 12.4177C35.0191 12.4177 35.0402 12.4241 35.0579 12.4361L38.6588 14.807C38.8386 14.9325 39.0537 15 39.2742 15C39.4948 15 39.7099 14.9325 39.8897 14.807C40.068 14.6812 40.2023 14.5043 40.274 14.3005C40.3457 14.0967 40.3514 13.8761 40.2903 13.669L39.1077 9.57221C39.1014 9.55164 39.1018 9.52968 39.1087 9.50931C39.1156 9.48895 39.1287 9.47117 39.1463 9.45841L42.5686 6.80311Z" fill="#FFB400"/>
<path d="M69.5686 6.80311C69.748 6.67182 69.8811 6.48868 69.9492 6.27935C70.0172 6.07003 70.0169 5.84501 69.9483 5.63587C69.8796 5.42672 69.746 5.24393 69.5663 5.11312C69.3865 4.98231 69.1696 4.91005 68.9459 4.90646L64.6017 4.74524C64.5803 4.7438 64.5599 4.73631 64.5427 4.72369C64.5256 4.71107 64.5126 4.69386 64.5052 4.67412L63.004 0.691163C62.9286 0.488525 62.7916 0.313548 62.6116 0.189924C62.4316 0.0663003 62.2172 0 61.9976 0C61.7779 0 61.5636 0.0663003 61.3836 0.189924C61.2036 0.313548 61.0666 0.488525 60.9912 0.691163L59.4948 4.68834C59.4874 4.70808 59.4744 4.7253 59.4573 4.73792C59.4401 4.75054 59.4197 4.75802 59.3983 4.75947L55.0541 4.92068C54.8304 4.92427 54.6135 4.99654 54.4337 5.12735C54.254 5.25815 54.1204 5.44095 54.0517 5.65009C53.9831 5.85924 53.9828 6.08425 54.0508 6.29358C54.1189 6.5029 54.252 6.68605 54.4314 6.81733L57.8392 9.44893C57.8563 9.46211 57.869 9.47992 57.8759 9.50014C57.8827 9.52037 57.8834 9.54213 57.8778 9.56273L56.7049 13.6453C56.6441 13.8532 56.65 14.0744 56.7217 14.2789C56.7935 14.4834 56.9276 14.6612 57.1059 14.7881C57.2842 14.9151 57.498 14.985 57.7181 14.9883C57.9383 14.9917 58.1542 14.9284 58.3364 14.807L61.9373 12.4361C61.955 12.4241 61.976 12.4177 61.9976 12.4177C62.0191 12.4177 62.0402 12.4241 62.0579 12.4361L65.6588 14.807C65.8386 14.9325 66.0537 15 66.2742 15C66.4948 15 66.7099 14.9325 66.8897 14.807C67.068 14.6812 67.2023 14.5043 67.274 14.3005C67.3457 14.0967 67.3514 13.8761 67.2903 13.669L66.1077 9.57221C66.1014 9.55164 66.1018 9.52968 66.1087 9.50931C66.1156 9.48895 66.1287 9.47117 66.1463 9.45841L69.5686 6.80311Z" fill="#FFB400"/>
<path d="M96.5686 6.80311C96.748 6.67182 96.8811 6.48868 96.9492 6.27935C97.0172 6.07003 97.0169 5.84501 96.9483 5.63587C96.8796 5.42672 96.746 5.24393 96.5663 5.11312C96.3865 4.98231 96.1696 4.91005 95.9459 4.90646L91.6017 4.74524C91.5803 4.7438 91.5599 4.73631 91.5427 4.72369C91.5256 4.71107 91.5126 4.69386 91.5052 4.67412L90.004 0.691163C89.9286 0.488525 89.7916 0.313548 89.6116 0.189924C89.4316 0.0663003 89.2172 0 88.9976 0C88.7779 0 88.5636 0.0663003 88.3836 0.189924C88.2036 0.313548 88.0666 0.488525 87.9912 0.691163L86.4948 4.68834C86.4874 4.70808 86.4744 4.7253 86.4573 4.73792C86.4401 4.75054 86.4197 4.75802 86.3983 4.75947L82.0541 4.92068C81.8304 4.92427 81.6135 4.99654 81.4337 5.12735C81.254 5.25815 81.1204 5.44095 81.0517 5.65009C80.9831 5.85924 80.9828 6.08425 81.0508 6.29358C81.1189 6.5029 81.252 6.68605 81.4314 6.81733L84.8392 9.44893C84.8563 9.46211 84.869 9.47992 84.8759 9.50014C84.8827 9.52037 84.8834 9.54213 84.8778 9.56273L83.7049 13.6453C83.6441 13.8532 83.65 14.0744 83.7217 14.2789C83.7935 14.4834 83.9276 14.6612 84.1059 14.7881C84.2842 14.9151 84.498 14.985 84.7181 14.9883C84.9383 14.9917 85.1542 14.9284 85.3364 14.807L88.9373 12.4361C88.955 12.4241 88.976 12.4177 88.9976 12.4177C89.0191 12.4177 89.0402 12.4241 89.0579 12.4361L92.6588 14.807C92.8386 14.9325 93.0537 15 93.2742 15C93.4948 15 93.7099 14.9325 93.8897 14.807C94.068 14.6812 94.2023 14.5043 94.274 14.3005C94.3457 14.0967 94.3514 13.8761 94.2903 13.669L93.1077 9.57221C93.1014 9.55164 93.1018 9.52968 93.1087 9.50931C93.1156 9.48895 93.1287 9.47117 93.1463 9.45841L96.5686 6.80311Z" fill="#FFB400"/>
<path d="M123.569 6.80311C123.748 6.67182 123.881 6.48868 123.949 6.27935C124.017 6.07003 124.017 5.84501 123.948 5.63587C123.88 5.42672 123.746 5.24393 123.566 5.11312C123.387 4.98231 123.17 4.91005 122.946 4.90646L118.602 4.74524C118.58 4.7438 118.56 4.73631 118.543 4.72369C118.526 4.71107 118.513 4.69386 118.505 4.67412L117.004 0.691163C116.929 0.488525 116.792 0.313548 116.612 0.189924C116.432 0.0663003 116.217 0 115.998 0C115.778 0 115.564 0.0663003 115.384 0.189924C115.204 0.313548 115.067 0.488525 114.991 0.691163L113.495 4.68834C113.487 4.70808 113.474 4.7253 113.457 4.73792C113.44 4.75054 113.42 4.75802 113.398 4.75947L109.054 4.92068C108.83 4.92427 108.613 4.99654 108.434 5.12735C108.254 5.25815 108.12 5.44095 108.052 5.65009C107.983 5.85924 107.983 6.08425 108.051 6.29358C108.119 6.5029 108.252 6.68605 108.431 6.81733L111.839 9.44893C111.856 9.46211 111.869 9.47992 111.876 9.50014C111.883 9.52037 111.883 9.54213 111.878 9.56273L110.705 13.6453C110.644 13.8532 110.65 14.0744 110.722 14.2789C110.794 14.4834 110.928 14.6612 111.106 14.7881C111.284 14.9151 111.498 14.985 111.718 14.9883C111.938 14.9917 112.154 14.9284 112.336 14.807L115.937 12.4361C115.955 12.4241 115.976 12.4177 115.998 12.4177C116.019 12.4177 116.04 12.4241 116.058 12.4361L119.659 14.807C119.839 14.9325 120.054 15 120.274 15C120.495 15 120.71 14.9325 120.89 14.807C121.068 14.6812 121.202 14.5043 121.274 14.3005C121.346 14.0967 121.351 13.8761 121.29 13.669L120.108 9.57221C120.101 9.55164 120.102 9.52968 120.109 9.50931C120.116 9.48895 120.129 9.47117 120.146 9.45841L123.569 6.80311Z" fill="#FFB400"/>
</svg>
