<svg width="17" height="18" viewBox="0 0 17 18" fill="none" xmlns="http://www.w3.org/2000/svg">
<path d="M16.4665 4.56824L13.2835 1.61926C12.9419 1.30279 12.4786 1.125 11.9956 1.125H1.82143C0.815469 1.125 0 1.88051 0 2.8125V15.1875C0 16.1195 0.815469 16.875 1.82143 16.875H15.1786C16.1845 16.875 17 16.1195 17 15.1875V5.76148C17 5.31392 16.8081 4.8847 16.4665 4.56824ZM10.3214 2.8125V5.625H5.46429V2.8125H10.3214ZM14.9509 15.1875H2.04911C1.98872 15.1875 1.93081 15.1653 1.88811 15.1257C1.84542 15.0862 1.82143 15.0325 1.82143 14.9766V3.02344C1.82143 2.96749 1.84542 2.91384 1.88811 2.87428C1.93081 2.83472 1.98872 2.8125 2.04911 2.8125H3.64286V6.46875C3.64286 6.93475 4.05059 7.3125 4.55357 7.3125H11.2321C11.7351 7.3125 12.1429 6.93475 12.1429 6.46875V2.94898L15.1119 5.69971C15.133 5.7193 15.1498 5.74255 15.1613 5.76815C15.1727 5.79374 15.1786 5.82117 15.1786 5.84888V14.9766C15.1786 15.0325 15.1546 15.0862 15.1119 15.1257C15.0692 15.1653 15.0113 15.1875 14.9509 15.1875ZM8.5 8.15625C6.65873 8.15625 5.16071 9.54411 5.16071 11.25C5.16071 12.9559 6.65873 14.3438 8.5 14.3438C10.3413 14.3438 11.8393 12.9559 11.8393 11.25C11.8393 9.54411 10.3413 8.15625 8.5 8.15625ZM8.5 12.6562C7.66305 12.6562 6.98214 12.0254 6.98214 11.25C6.98214 10.4746 7.66305 9.84375 8.5 9.84375C9.33695 9.84375 10.0179 10.4746 10.0179 11.25C10.0179 12.0254 9.33695 12.6562 8.5 12.6562Z" fill="white"/>
</svg>
