<svg width="18" height="18" viewBox="0 0 18 18" fill="none" xmlns="http://www.w3.org/2000/svg">
<path d="M14.2492 15.0001H3.74925C3.55033 15.0001 3.35957 15.0792 3.21892 15.2198C3.07826 15.3605 2.99925 15.5512 2.99925 15.7501C2.99925 15.949 3.07826 16.1398 3.21892 16.2805C3.35957 16.4211 3.55033 16.5001 3.74925 16.5001H14.2492C14.4482 16.5001 14.6389 16.4211 14.7796 16.2805C14.9202 16.1398 14.9992 15.949 14.9992 15.7501C14.9992 15.5512 14.9202 15.3605 14.7796 15.2198C14.6389 15.0792 14.4482 15.0001 14.2492 15.0001ZM3.74925 13.5001H3.81675L6.94425 13.2151C7.28684 13.181 7.60727 13.0301 7.85175 12.7876L14.6017 6.03764C14.8637 5.76086 15.0053 5.39152 14.9955 5.01054C14.9856 4.62956 14.8252 4.26802 14.5492 4.00514L12.4942 1.95014C12.226 1.69821 11.8746 1.55366 11.5067 1.54398C11.1389 1.5343 10.7803 1.66016 10.4992 1.89764L3.74925 8.64764C3.50682 8.89211 3.35587 9.21254 3.32175 9.55514L2.99925 12.6826C2.98914 12.7925 3.0034 12.9032 3.04099 13.0069C3.07859 13.1106 3.1386 13.2048 3.21675 13.2826C3.28683 13.3521 3.36994 13.4071 3.46132 13.4445C3.55269 13.4818 3.65054 13.5007 3.74925 13.5001ZM11.4517 3.00014L13.4992 5.04764L11.9992 6.51014L9.98925 4.50014L11.4517 3.00014Z" fill="#18C5FF"/>
</svg>
