<svg width="24" height="24" viewBox="0 0 24 24" fill="none" xmlns="http://www.w3.org/2000/svg">
<path d="M12.0013 16.0003C11.7676 16.0007 11.5412 15.9194 11.3613 15.7703L5.36125 10.7703C5.15704 10.6005 5.02861 10.3566 5.00423 10.0922C4.97985 9.82777 5.06151 9.56449 5.23125 9.36028C5.40099 9.15606 5.6449 9.02763 5.90933 9.00325C6.17375 8.97888 6.43704 9.06054 6.64125 9.23028L12.0013 13.7103L17.3613 9.39028C17.4635 9.30721 17.5812 9.24518 17.7076 9.20775C17.8339 9.17031 17.9664 9.15822 18.0974 9.17216C18.2285 9.1861 18.3554 9.2258 18.4711 9.28897C18.5867 9.35214 18.6887 9.43755 18.7713 9.54028C18.8628 9.6431 18.9322 9.76372 18.975 9.8946C19.0178 10.0255 19.0331 10.1638 19.0199 10.3008C19.0068 10.4379 18.9655 10.5708 18.8986 10.6911C18.8317 10.8115 18.7407 10.9167 18.6313 11.0003L12.6313 15.8303C12.4462 15.9558 12.2244 16.0156 12.0013 16.0003Z" fill="#212429"/>
</svg>
