<svg width="100" height="100" viewBox="0 0 100 100" fill="none" xmlns="http://www.w3.org/2000/svg">
<path d="M50.0384 26.3869C38.6537 26.3869 31.5685 10.0072 30.798 8.14023C30.3498 7.05137 30.5242 5.8082 31.2535 4.88633C33.7117 1.78027 37.6 0 41.9195 0C46.239 0 50.1273 1.78027 52.5853 4.88613C54.2208 6.95176 56.6152 8.0957 58.923 7.97715C60.271 7.90098 62.1644 7.35547 63.5238 5.17988C64.4181 3.74629 66.264 3.24102 67.763 4.0127C69.2642 4.78438 69.9238 6.57949 69.28 8.14004C68.5093 10.0072 61.4232 26.3869 50.0384 26.3869Z" fill="#AA6100"/>
<path d="M67.7653 4.0125C66.2662 3.24082 64.4203 3.74629 63.526 5.17969C62.1666 7.35547 60.2733 7.90078 58.9252 7.97696C56.6174 8.09532 54.2721 6.95156 52.6367 4.88594C51.8942 3.94707 50.9471 3.14688 50.0811 2.46289V26.3815C50.0811 26.3815 50.0703 26.3867 50.0899 26.3867C61.4746 26.3867 68.5362 10.007 69.3069 8.14004C69.9506 6.5793 69.2664 4.78418 67.7653 4.0125Z" fill="#884E00"/>
<path d="M50.0375 99.9988C36.1928 99.9988 25.675 97.1105 18.777 91.4125C12.6949 86.3867 9.61133 79.4473 9.61133 70.785C9.61133 47.9543 31.9029 19.8906 50.0377 19.8906C68.1207 19.8906 90.3477 47.8465 90.3477 70.5883C90.3477 79.2973 87.2713 86.2809 81.2031 91.3426C74.3176 97.0875 63.8326 99.9988 50.0375 99.9988Z" fill="#AA6100"/>
<path d="M50.0881 19.8906C50.0687 19.8906 50.0793 19.8932 50.0793 19.8932V99.9971C50.0793 99.9971 50.0681 99.9986 50.0881 99.9986C63.8832 99.9986 74.3435 97.0873 81.2289 91.3426C87.297 86.2809 90.3857 79.2971 90.3857 70.5883C90.3857 47.8465 68.1711 19.8906 50.0881 19.8906Z" fill="#884E00"/>
<path d="M51.6 59.1053C48.1928 57.3039 44.6691 55.4432 44.6691 53.3162C44.6691 50.3309 47.0975 47.9035 50.0818 47.9035C53.0662 47.9035 55.4945 50.3309 55.4945 53.3162C55.4945 55.1092 56.9482 56.5639 58.7422 56.5639C60.5361 56.5639 61.9898 55.1092 61.9898 53.3162C61.9898 47.8781 58.3092 43.2891 53.3295 41.8703V40.3258C53.3295 38.5328 51.8758 37.0781 50.0818 37.0781C48.2879 37.0781 46.8342 38.5328 46.8342 40.3258V41.8703C41.8545 43.2891 38.1738 47.8781 38.1738 53.3162C38.1738 59.3549 43.9354 62.4015 48.5637 64.8478C51.9709 66.6492 55.4945 68.5099 55.4945 70.6369C55.4945 73.6222 53.0662 76.0496 50.0818 76.0496C47.0975 76.0496 44.6691 73.6222 44.6691 70.6369C44.6691 68.8439 43.2154 67.3892 41.4215 67.3892C39.6275 67.3892 38.1738 68.8439 38.1738 70.6369C38.1738 76.075 41.8545 80.664 46.8342 82.0828V83.6273C46.8342 85.4203 48.2879 86.875 50.0818 86.875C51.8758 86.875 53.3295 85.4203 53.3295 83.6273V82.0828C58.3092 80.664 61.9898 76.075 61.9898 70.6369C61.99 64.5982 56.2283 61.5515 51.6 59.1053Z" fill="#FFDA44"/>
<path d="M50.1273 76.0496C50.0936 76.0496 50.0781 76.04 50.0781 76.0396V86.865C50.0781 86.8662 50.0936 86.875 50.1273 86.875C51.9213 86.875 53.3258 85.4203 53.3258 83.6273V82.0828C58.3055 80.6641 61.9861 76.075 61.9861 70.6369C61.9861 64.5982 56.2738 61.5516 51.6455 59.1053C51.1031 58.8188 50.5111 58.5291 50.0781 58.2383V65.6057C52.8928 67.1734 55.5645 68.8063 55.5645 70.6367C55.5646 73.6225 53.1117 76.0496 50.1273 76.0496Z" fill="#FFA733"/>
<path d="M53.3258 41.8703V40.3258C53.3258 38.5328 51.9213 37.0781 50.1273 37.0781C50.0936 37.0781 50.0781 37.0873 50.0781 37.0881V47.9135C50.0781 47.9131 50.0936 47.9035 50.1273 47.9035C53.1117 47.9035 55.5154 50.3309 55.5154 53.3162C55.5154 55.1092 56.9566 56.5639 58.7508 56.5639C60.5449 56.5639 61.9924 55.1092 61.9924 53.3162C61.9924 47.8781 58.3057 43.2891 53.3258 41.8703Z" fill="#FFA733"/>
</svg>