<svg width="24" height="24" viewBox="0 0 24 24" fill="none" xmlns="http://www.w3.org/2000/svg">
<path d="M12.0013 8.0007C11.7676 8.00024 11.5412 8.08162 11.3613 8.2307L5.36125 13.2307C5.15704 13.4004 5.02861 13.6444 5.00423 13.9088C4.97985 14.1732 5.06151 14.4365 5.23125 14.6407C5.40099 14.8449 5.6449 14.9733 5.90933 14.9977C6.17375 15.0221 6.43704 14.9404 6.64125 14.7707L12.0013 10.2907L17.3613 14.6107C17.4635 14.6938 17.5812 14.7558 17.7076 14.7932C17.8339 14.8307 17.9664 14.8428 18.0974 14.8288C18.2285 14.8149 18.3554 14.7752 18.4711 14.712C18.5867 14.6488 18.6887 14.5634 18.7713 14.4607C18.8628 14.3579 18.9322 14.2373 18.975 14.1064C19.0178 13.9755 19.0331 13.8372 19.0199 13.7001C19.0068 13.5631 18.9655 13.4302 18.8986 13.3098C18.8317 13.1895 18.7407 13.0842 18.6313 13.0007L12.6313 8.1707C12.4462 8.04519 12.2244 7.98533 12.0013 8.0007Z" fill="#212429"/>
</svg>
