<svg width="160" height="102" viewBox="0 0 160 102" fill="none" xmlns="http://www.w3.org/2000/svg">
<g filter="url(#filter0_d)">
<path d="M13.7645 15.5411C14.45 9.46646 20.3773 5.42318 26.2832 7.00149L142.488 38.0562C147.271 39.3343 150.398 43.9193 149.843 48.8385L146.442 78.9822C145.756 85.0569 139.829 89.1001 133.923 87.5218L17.7179 56.4671C12.9353 55.189 9.8077 50.604 10.3628 45.6848L13.7645 15.5411Z" fill="#FF5656"/>
</g>
<path d="M17.1928 26.4564L17.5501 22.7565L18.0478 22.8046L18.2265 20.9547C18.2943 20.2522 18.4358 19.5781 18.6419 18.9381L18.166 18.7849C18.621 17.3718 19.3758 16.1141 20.3446 15.0713L20.7109 15.4117C21.6492 14.4017 22.7989 13.6038 24.0733 13.0781L23.8827 12.6159C25.1984 12.0732 26.6407 11.8061 28.1237 11.8742L28.1007 12.3737C28.7724 12.4045 29.4534 12.5078 30.1352 12.69L32.0456 13.2006L32.1747 12.7175L35.9956 13.7386L35.8665 14.2216L39.6873 15.2427L39.8164 14.7597L43.6372 15.7808L43.5081 16.2638L47.329 17.2849L47.458 16.8018L51.2789 17.8229L51.1498 18.306L54.9706 19.3271L55.0997 18.844L58.9206 19.8651L58.7915 20.3481L62.6123 21.3692L62.7414 20.8862L66.5622 21.9072L66.4331 22.3903L70.254 23.4114L70.383 22.9283L74.2039 23.9494L74.0748 24.4325L77.8956 25.4535L78.0247 24.9705L81.8456 25.9916L81.7165 26.4746L85.5373 27.4957L85.6664 27.0127L89.4872 28.0337L89.3581 28.5168L93.179 29.5379L93.3081 29.0548L97.1289 30.0759L96.9998 30.559L100.821 31.58L100.95 31.097L104.771 32.1181L104.641 32.6011L108.462 33.6222L108.591 33.1392L112.412 34.1602L112.283 34.6433L116.104 35.6644L116.233 35.1813L120.054 36.2024L119.925 36.6854L123.746 37.7065L123.875 37.2235L127.696 38.2446L127.566 38.7276L131.387 39.7487L131.516 39.2656L135.337 40.2867L135.208 40.7698L137.119 41.2803C137.665 41.4264 138.189 41.6179 138.686 41.8498L138.898 41.3967C139.978 41.9004 140.942 42.5858 141.758 43.4078L141.403 43.7601C142.19 44.5517 142.831 45.4765 143.298 46.4899L143.752 46.2808C144.237 47.333 144.541 48.4759 144.635 49.6642L144.137 49.7036C144.18 50.2508 144.176 50.8084 144.122 51.3715L143.943 53.2214L144.441 53.2695L144.084 56.9693L143.586 56.9213L143.229 60.6211L143.726 60.6692L143.369 64.369L142.871 64.321L142.514 68.0208L143.012 68.0689L142.654 71.7687L142.157 71.7207L141.978 73.5706C141.91 74.273 141.769 74.9471 141.562 75.5871L142.038 75.7404C141.583 77.1535 140.829 78.4112 139.86 79.4539L139.493 79.1136C138.555 80.1235 137.405 80.9214 136.131 81.4471L136.322 81.9093C135.006 82.4521 133.564 82.7191 132.081 82.651L132.104 82.1516C131.432 82.1207 130.751 82.0174 130.069 81.8352L128.159 81.3247L128.03 81.8077L124.209 80.7866L124.338 80.3036L120.517 79.2825L120.388 79.7656L116.567 78.7445L116.696 78.2614L112.875 77.2404L112.746 77.7234L108.925 76.7023L109.055 76.2193L105.234 75.1982L105.105 75.6812L101.284 74.6602L101.413 74.1771L97.592 73.156L97.4629 73.6391L93.6421 72.618L93.7712 72.1349L89.9504 71.1139L89.8213 71.5969L86.0004 70.5758L86.1295 70.0928L82.3087 69.0717L82.1796 69.5548L78.3588 68.5337L78.4879 68.0506L74.667 67.0295L74.5379 67.5126L70.7171 66.4915L70.8462 66.0085L67.0254 64.9874L66.8963 65.4704L63.0754 64.4493L63.2045 63.9663L59.3837 62.9452L59.2546 63.4283L55.4338 62.4072L55.5628 61.9241L51.742 60.903L51.6129 61.3861L47.7921 60.365L47.9212 59.882L44.1003 58.8609L43.9713 59.3439L40.1504 58.3228L40.2795 57.8398L36.4587 56.8187L36.3296 57.3018L32.5087 56.2807L32.6378 55.7976L28.817 54.7765L28.6879 55.2596L24.8671 54.2385L24.9962 53.7555L23.0857 53.2449C22.5392 53.0989 22.0155 52.9074 21.518 52.6754L21.3067 53.1286C20.2263 52.6248 19.2623 51.9394 18.4461 51.1175L18.8009 50.7652C18.0148 49.9736 17.3729 49.0487 16.9064 48.0354L16.4522 48.2445C15.9678 47.1923 15.663 46.0494 15.569 44.861L16.0675 44.8216C16.0242 44.2744 16.0281 43.7169 16.0825 43.1537L16.2611 41.3038L15.7634 41.2557L16.1208 37.5559L16.6185 37.604L16.9758 33.9041L16.4781 33.8561L16.8355 30.1562L17.3331 30.2043L17.6905 26.5044L17.1928 26.4564Z" stroke="white" stroke-dasharray="4 4"/>
<path d="M42.3792 43.6555C41.2353 43.3499 40.2682 42.8375 39.4777 42.1183C38.69 41.3889 38.1476 40.5263 37.8507 39.5305C37.5667 38.5272 37.5707 37.4794 37.8627 36.387C38.1546 35.2947 38.6724 34.3897 39.4163 33.6721C40.1732 32.9469 41.0735 32.4699 42.1173 32.2409C43.1639 32.0017 44.2591 32.0349 45.403 32.3406C46.4541 32.6215 47.3423 33.0576 48.0676 33.6489C48.7928 34.2402 49.3298 34.9578 49.6783 35.8018L46.8258 37.2421C46.3818 36.2181 45.7063 35.5849 44.7995 35.3426C44.0369 35.1388 43.3577 35.2223 42.7618 35.593C42.1686 35.9534 41.7619 36.5458 41.5415 37.3702C41.3212 38.1946 41.3768 38.9161 41.7084 39.5346C42.0427 40.1429 42.5911 40.5489 43.3537 40.7527C44.2605 40.9951 45.1618 40.7832 46.0574 40.1172L47.8112 42.7886C47.0881 43.3461 46.2647 43.7002 45.3412 43.8509C44.4176 44.0016 43.4303 43.9364 42.3792 43.6555ZM58.6836 41.7856L60.3962 48.2054L56.2845 47.1066L55.2583 42.6423L54.2381 42.3697L53.193 46.2804L49.545 45.3056L52.4366 34.4853L56.0846 35.4602L55.0064 39.4946L56.1194 39.792L59.5007 36.3731L63.3033 37.3893L58.6836 41.7856ZM65.2837 37.9185L68.8698 38.8769L67.3662 44.5034L72.5951 39.8724L76.0267 40.7895L73.135 51.6098L69.5489 50.6514L71.0484 45.0403L65.8391 49.66L62.392 48.7388L65.2837 37.9185ZM89.1837 52.8679L87.8618 57.8143L84.523 56.922L85.0889 54.8043L78.9368 53.1602L78.3709 55.2779L75.032 54.3857L76.3539 49.4392L76.6631 49.5219C77.2917 49.6898 77.8408 49.4115 78.3105 48.6869C78.7802 47.9622 79.2576 46.8367 79.7429 45.3102L80.7464 42.0508L89.8973 44.4963L87.7616 52.4878L89.1837 52.8679ZM82.829 46.4662C82.5097 47.496 82.1904 48.3602 81.8712 49.0588C81.5548 49.7471 81.2099 50.2732 80.8366 50.6372L84.1754 51.5295L85.5552 46.3666L83.0665 45.7016L82.829 46.4662ZM99.9353 52.8098L101.648 59.2296L97.5362 58.1308L96.51 53.6665L95.4898 53.3938L94.4447 57.3046L90.7967 56.3297L93.6884 45.5094L97.3363 46.4843L96.2582 50.5187L97.3711 50.8161L100.752 47.3972L104.555 48.4134L99.9353 52.8098ZM111.467 59.8331L107.355 58.7342L106.125 60.4259L102.415 59.4345L110.036 49.8783L113.623 50.8366L115.461 62.921L111.689 61.913L111.467 59.8331ZM111.164 56.9368L110.84 53.9353L109.062 56.375L111.164 56.9368ZM119.97 52.5328L124.143 53.6482L121.663 60.1399L118.881 59.3964L119.97 52.5328ZM119.123 64.0653C118.526 63.9056 118.084 63.5945 117.8 63.1319C117.515 62.6693 117.441 62.1804 117.579 61.6652C117.719 61.1396 118.025 60.7577 118.498 60.5196C118.973 60.2711 119.509 60.2267 120.107 60.3864C120.704 60.5462 121.147 60.8522 121.435 61.3044C121.725 61.7464 121.8 62.2302 121.66 62.7557C121.522 63.271 121.214 63.658 120.736 63.9168C120.259 64.1755 119.721 64.2251 119.123 64.0653Z" fill="white"/>
<defs>
<filter id="filter0_d" x="0.298828" y="0.658203" width="159.608" height="101.206" filterUnits="userSpaceOnUse" color-interpolation-filters="sRGB">
<feFlood flood-opacity="0" result="BackgroundImageFix"/>
<feColorMatrix in="SourceAlpha" type="matrix" values="0 0 0 0 0 0 0 0 0 0 0 0 0 0 0 0 0 0 127 0"/>
<feOffset dy="4"/>
<feGaussianBlur stdDeviation="5"/>
<feColorMatrix type="matrix" values="0 0 0 0 0.129412 0 0 0 0 0.141176 0 0 0 0 0.160784 0 0 0 0.4 0"/>
<feBlend mode="normal" in2="BackgroundImageFix" result="effect1_dropShadow"/>
<feBlend mode="normal" in="SourceGraphic" in2="effect1_dropShadow" result="shape"/>
</filter>
</defs>
</svg>
