<svg width="22" height="22" viewBox="0 0 22 22" fill="none" xmlns="http://www.w3.org/2000/svg">
<path d="M17.875 19.2501H17.8748L13.7493 19.2496C13.3848 19.2491 13.0354 19.1041 12.7776 18.8463C12.5199 18.5885 12.3749 18.2391 12.3745 17.8746V13.7495H9.62448V17.8745C9.62405 18.239 9.47907 18.5885 9.22134 18.8462C8.96361 19.104 8.61417 19.249 8.24966 19.2495L4.12517 19.2502C3.94459 19.2502 3.76577 19.2146 3.59893 19.1456C3.43209 19.0765 3.28049 18.9752 3.15279 18.8475C3.02509 18.7198 2.92379 18.5682 2.85468 18.4014C2.78557 18.2346 2.75 18.0558 2.75 17.8752V9.92939C2.75015 9.73782 2.79025 9.54839 2.86774 9.37319C2.94524 9.19799 3.05842 9.04088 3.20005 8.91189L10.0745 2.6614C10.327 2.4301 10.657 2.30179 10.9994 2.30176C11.3418 2.30173 11.6719 2.42998 11.9244 2.66123L18.8 8.91198C18.9416 9.04098 19.0548 9.19808 19.1322 9.37326C19.2097 9.54844 19.2498 9.73784 19.25 9.92939V17.8752C19.25 18.2398 19.1051 18.5896 18.8473 18.8474C18.5894 19.1053 18.2397 19.2502 17.875 19.2502V19.2501ZM9.62448 12.3745H12.3745C12.739 12.3749 13.0885 12.5199 13.3463 12.7777C13.6041 13.0354 13.7491 13.3849 13.7495 13.7495V17.8753L17.875 17.8752V9.92939L10.9995 3.67873L4.125 9.9293V17.8751L8.24948 17.8746V13.7495C8.24989 13.3849 8.39489 13.0354 8.65266 12.7777C8.91044 12.5199 9.25994 12.3749 9.62448 12.3745Z" fill="#878E99"/>
</svg>
