<svg width="111" height="124" viewBox="0 0 111 124" fill="none" xmlns="http://www.w3.org/2000/svg">
<g filter="url(#filter0_d)">
<path d="M52.7054 46.0247C61.1346 43.4281 67.875 43.298 72.9266 45.6344C78.018 47.8957 81.4469 51.8935 83.2132 57.6276C84.379 61.4121 84.453 65.219 83.4353 69.0483C82.4572 72.8026 80.2129 76.3191 76.7026 79.5979C73.1746 82.8192 68.3429 85.3749 62.2074 87.2649C57.9642 88.5721 53.5796 89.4204 49.0537 89.8101C44.5852 90.1821 40.5003 89.965 36.799 89.159L39.0697 72.0733C42.0343 72.7296 45.0076 73.0066 47.9896 72.9042C51.0289 72.7841 53.8674 72.3178 56.5051 71.5052C58.8561 70.781 60.6247 69.7968 61.811 68.5524C63.0369 67.233 63.4202 65.8279 62.961 64.337C62.5194 62.9035 61.5332 62.0458 60.0024 61.764C58.4539 61.4248 55.9594 61.7852 52.519 62.845L35.0586 68.2235L26.8084 30.7413L66.8038 18.4209L71.52 33.731L48.2109 40.9112L49.609 46.9785L52.7054 46.0247Z" fill="#3CBF32"/>
</g>
<defs>
<filter id="filter0_d" x="0.808594" y="0.421875" width="109.338" height="123.565" filterUnits="userSpaceOnUse" color-interpolation-filters="sRGB">
<feFlood flood-opacity="0" result="BackgroundImageFix"/>
<feColorMatrix in="SourceAlpha" type="matrix" values="0 0 0 0 0 0 0 0 0 0 0 0 0 0 0 0 0 0 127 0"/>
<feOffset dy="8"/>
<feGaussianBlur stdDeviation="13"/>
<feColorMatrix type="matrix" values="0 0 0 0 0.129412 0 0 0 0 0.141176 0 0 0 0 0.160784 0 0 0 0.23 0"/>
<feBlend mode="normal" in2="BackgroundImageFix" result="effect1_dropShadow"/>
<feBlend mode="normal" in="SourceGraphic" in2="effect1_dropShadow" result="shape"/>
</filter>
</defs>
</svg>
