<svg width="115" height="118" viewBox="0 0 115 118" fill="none" xmlns="http://www.w3.org/2000/svg">
<g filter="url(#filter0_d)">
<path d="M63.9331 42.9753C67.6067 44.0936 70.7773 45.9368 73.4451 48.505C76.1128 51.0732 77.9482 54.1093 78.9512 57.6133C79.9543 61.1173 79.8792 64.7634 78.726 68.5518C77.4504 72.742 75.2328 76.1122 72.0731 78.6626C68.9709 81.2305 65.2922 82.8075 61.037 83.3937C56.7818 83.98 52.387 83.5829 47.8524 82.2025C42.0551 80.4377 37.316 77.7721 33.6351 74.2056C30.0116 70.6565 27.6672 66.3052 26.6018 61.1515C25.5365 55.9979 25.9823 50.2067 27.9393 43.778C30.036 36.8901 33.2308 31.3399 37.5236 27.1274C41.8738 22.9325 46.9477 20.2749 52.7452 19.1547C58.6001 18.0519 64.8567 18.514 71.5151 20.5409C75.1312 21.6417 78.4441 23.1206 81.4538 24.9775C84.481 26.7771 86.9154 28.7725 88.757 30.9638L77.114 42.9424C74.7758 39.91 71.4542 37.7386 67.1492 36.4281C63.6478 35.3622 60.4783 35.3695 57.6407 36.45C54.8779 37.4905 52.6454 39.5705 50.9432 42.69C54.7816 41.4124 59.1116 41.5075 63.9331 42.9753ZM50.747 67.749C52.5838 68.3082 54.2422 68.2172 55.7222 67.476C57.2021 66.7349 58.2304 65.4173 58.8071 63.5231C59.3837 61.6289 59.264 59.9618 58.448 58.5217C57.6494 57.0243 56.3318 55.996 54.495 55.4369C52.6582 54.8777 50.9911 54.9974 49.4937 55.7959C48.0137 56.5371 46.9854 57.8547 46.4088 59.7489C45.8322 61.6431 45.9519 63.3102 46.7679 64.7502C47.5839 66.1903 48.9103 67.1899 50.747 67.749Z" fill="#3CBF32"/>
</g>
<defs>
<filter id="filter0_d" x="0.0390625" y="0.572266" width="114.719" height="117.084" filterUnits="userSpaceOnUse" color-interpolation-filters="sRGB">
<feFlood flood-opacity="0" result="BackgroundImageFix"/>
<feColorMatrix in="SourceAlpha" type="matrix" values="0 0 0 0 0 0 0 0 0 0 0 0 0 0 0 0 0 0 127 0"/>
<feOffset dy="8"/>
<feGaussianBlur stdDeviation="13"/>
<feColorMatrix type="matrix" values="0 0 0 0 0.129412 0 0 0 0 0.141176 0 0 0 0 0.160784 0 0 0 0.23 0"/>
<feBlend mode="normal" in2="BackgroundImageFix" result="effect1_dropShadow"/>
<feBlend mode="normal" in="SourceGraphic" in2="effect1_dropShadow" result="shape"/>
</filter>
</defs>
</svg>
