<svg width="40" height="40" viewBox="0 0 40 40" fill="none" xmlns="http://www.w3.org/2000/svg">
<path d="M8.33268 21.6673H28.0993L22.0493 28.934C21.9093 29.1025 21.8038 29.297 21.7388 29.5063C21.6739 29.7156 21.6509 29.9356 21.671 30.1539C21.7116 30.5946 21.9257 31.0011 22.266 31.284C22.6064 31.5669 23.0452 31.703 23.4859 31.6624C23.9266 31.6217 24.3331 31.4077 24.616 31.0673L32.9493 21.0673C33.0054 20.9878 33.0555 20.9042 33.0993 20.8173C33.0993 20.734 33.1827 20.684 33.216 20.6007C33.2916 20.4096 33.3311 20.2061 33.3327 20.0007C33.3311 19.7952 33.2916 19.5918 33.216 19.4007C33.216 19.3173 33.1327 19.2673 33.0993 19.184C33.0555 19.0971 33.0054 19.0135 32.9493 18.934L24.616 8.93399C24.4593 8.74585 24.2631 8.59455 24.0413 8.49085C23.8195 8.38715 23.5775 8.33359 23.3327 8.33399C22.9433 8.33323 22.5659 8.46885 22.266 8.71732C22.0972 8.85724 21.9577 9.02907 21.8555 9.22298C21.7532 9.41689 21.6902 9.62907 21.6701 9.84737C21.65 10.0657 21.6731 10.2858 21.7382 10.4951C21.8033 10.7045 21.909 10.8989 22.0493 11.0673L28.0993 18.334H8.33268C7.89065 18.334 7.46673 18.5096 7.15417 18.8221C6.84161 19.1347 6.66602 19.5586 6.66602 20.0007C6.66602 20.4427 6.84161 20.8666 7.15417 21.1792C7.46673 21.4917 7.89065 21.6673 8.33268 21.6673Z" fill="#FFB400"/>
</svg>
