<svg width="100" height="100" viewBox="0 0 100 100" fill="none" xmlns="http://www.w3.org/2000/svg">
<g clip-path="url(#clip0)">
<path d="M96.7391 100H3.26094C1.4584 100 0 98.542 0 96.7395C0 94.9371 1.4584 93.4785 3.26094 93.4785H96.7393C98.5416 93.4785 100 94.9369 100 96.7395C100 98.542 98.5416 100 96.7391 100Z" fill="#1F63AD"/>
<path d="M96.7391 93.4785H50V100H96.7391C98.5414 100 100 98.5418 100 96.7393C100 94.9369 98.5416 93.4785 96.7391 93.4785Z" fill="#004999"/>
<path d="M96.7402 0H77.175C75.3727 0 73.9141 1.4584 73.9141 3.26094V83.6957C73.9141 85.498 75.3725 86.9566 77.175 86.9566H96.7402C98.5426 86.9566 100.001 85.4982 100.001 83.6957V3.26094C100.001 1.4584 98.5428 0 96.7402 0Z" fill="#FFDA44"/>
<path d="M99.9987 83.6957V3.26094C99.9987 1.4584 98.5403 0 96.7377 0H86.9551V86.9564H96.7377C98.5403 86.9564 99.9987 85.498 99.9987 83.6957Z" fill="#FFAA00"/>
<path d="M40.216 86.9574H59.7813C61.5836 86.9574 63.0422 85.499 63.0422 83.6965V31.5227C63.0422 29.7203 61.5838 28.2617 59.7813 28.2617H40.216C38.4137 28.2617 36.9551 29.7201 36.9551 31.5227V83.6965C36.9551 85.499 38.4137 86.9574 40.216 86.9574Z" fill="#32BBFF"/>
<path d="M63.0436 83.6965V31.5227C63.0436 29.7203 61.5852 28.2617 59.7826 28.2617H50V86.9574H59.7826C61.585 86.9572 63.0436 85.4988 63.0436 83.6965Z" fill="#2C9FD9"/>
<path d="M3.26094 86.9563H22.8262C24.6285 86.9563 26.0871 85.4979 26.0871 83.6953V57.6086C26.0871 55.8063 24.6287 54.3477 22.8262 54.3477H3.26094C1.4584 54.3477 0 55.8061 0 57.6086V83.6955C0 85.4979 1.4584 86.9563 3.26094 86.9563Z" fill="#FF4B26"/>
<path d="M26.0883 83.6955V57.6086C26.0883 55.8063 24.6299 54.3477 22.8273 54.3477H13.0449V86.9564H22.8275C24.6299 86.9562 26.0883 85.4979 26.0883 83.6955Z" fill="#D93F21"/>
</g>
<defs>
<clipPath id="clip0">
<rect width="100" height="100" fill="white"/>
</clipPath>
</defs>
</svg>
