<svg width="100" height="100" viewBox="0 0 100 100" fill="none" xmlns="http://www.w3.org/2000/svg">
<path d="M52.9297 11.9141V20.7031C52.9297 22.3436 51.6408 23.6328 50 23.6328C48.3592 23.6328 47.0703 22.3436 47.0703 20.7031V11.9141C47.0703 10.2732 48.3592 8.98438 50 8.98438C51.6408 8.98438 52.9297 10.2732 52.9297 11.9141Z" fill="#CAE8F9"/>
<path d="M65.702 25.7042C64.5577 24.5598 64.5577 22.7057 65.702 21.5614L71.5614 15.702C72.7057 14.5577 74.5598 14.5577 75.7041 15.702C76.8485 16.8463 76.8485 18.7004 75.7041 19.8448L69.8448 25.7042C68.7002 26.8487 66.8463 26.8487 65.702 25.7042Z" fill="#B7E0F6"/>
<path d="M30.3504 25.7042L24.4911 19.8448C23.3467 18.7004 23.3467 16.8463 24.4911 15.702C25.6354 14.5577 27.4895 14.5577 28.6338 15.702L34.4932 21.5614C35.6375 22.7057 35.6375 24.5598 34.4932 25.7042C33.3487 26.8487 31.4948 26.8487 30.3504 25.7042Z" fill="#CAE8F9"/>
<path d="M41.2109 67.5781C37.9748 67.5781 35.3516 70.2014 35.3516 73.4375C35.3516 76.6732 37.9748 79.2969 41.2109 79.2969H47.0703C43.8342 79.2969 41.2109 81.9201 41.2109 85.1562C41.2109 88.392 43.8342 91.0156 47.0703 91.0156C53.8953 91.0156 66.7678 91.0156 73.6328 91.0156C88.1725 91.0156 100 79.1881 100 64.6484V58.7891C100 44.2494 88.1725 32.4219 73.6328 32.4219H58.9844C55.7482 32.4219 52.9297 35.0451 52.9297 38.2812C52.9297 41.517 55.7482 44.1406 58.9844 44.1406H41.2109C37.9748 44.1406 35.3516 46.7639 35.3516 50C35.3516 53.2357 37.9748 55.8594 41.2109 55.8594C37.9748 55.8594 35.3516 58.4826 35.3516 61.7188C35.3516 64.9545 37.9748 67.5781 41.2109 67.5781Z" fill="#FEC478"/>
<path d="M64.8438 61.7188C64.8438 58.4826 62.2205 55.8594 58.9844 55.8594C62.2205 55.8594 64.8438 53.2357 64.8438 50C64.8438 46.7639 62.2205 44.1406 58.9844 44.1406H41.2109C44.4471 44.1406 47.0703 41.517 47.0703 38.2812C47.0703 35.0451 44.4471 32.4219 41.2109 32.4219H26.5625C12.0229 32.4219 0 44.2494 0 58.7891V64.6484C0 79.1881 12.0229 91.0156 26.5625 91.0156C33.4275 91.0156 46.1047 91.0156 52.9297 91.0156C56.1658 91.0156 58.9844 88.392 58.9844 85.1562C58.9844 81.9201 56.1658 79.2969 52.9297 79.2969H58.9844C62.2205 79.2969 64.8438 76.6732 64.8438 73.4375C64.8438 70.2014 62.2205 67.5781 58.9844 67.5781C62.2205 67.5781 64.8438 64.9545 64.8438 61.7188Z" fill="#FEDBAB"/>
<path d="M73.6328 32.4219C67.1145 32.4219 65.5 32.4219 58.9844 32.4219C55.7482 32.4219 52.9297 35.0451 52.9297 38.2812C52.9297 41.517 55.7482 44.1406 58.9844 44.1406H70.7031V47.0703C70.7031 57.832 79.3609 67.5781 91.2109 67.5781H100C100 55.4307 100 64.0502 100 58.7891C100 44.2494 88.1725 32.4219 73.6328 32.4219Z" fill="#FEB756"/>
<path d="M52.9297 11.9141V20.7031C52.9297 22.3436 51.6408 23.6328 50 23.6328V8.98438C51.6408 8.98438 52.9297 10.2732 52.9297 11.9141Z" fill="#B7E0F6"/>
</svg>
