<svg width="100" height="100" viewBox="0 0 100 100" fill="none" xmlns="http://www.w3.org/2000/svg">
<path d="M89.1301 89.1312H41.3039C39.5025 89.1312 38.043 87.6717 38.043 85.8703C38.043 84.0689 39.5025 82.6094 41.3039 82.6094H89.1301C90.9314 82.6094 92.391 84.0689 92.391 85.8703C92.391 87.6717 90.9312 89.1312 89.1301 89.1312Z" fill="#884E00"/>
<path d="M30.4336 78.2609C28.6322 78.2609 27.1727 76.8014 27.1727 75V13.0436C27.1727 9.44726 24.2473 6.52187 20.651 6.52187C17.0547 6.52187 14.1293 9.44726 14.1293 13.0436V16.3045C14.1293 18.1059 12.6697 19.5654 10.8684 19.5654C9.06699 19.5654 7.60742 18.1059 7.60742 16.3045V13.0436C7.60762 5.85078 13.4584 0 20.651 0C27.8436 0 33.6945 5.85078 33.6945 13.0436V75C33.6945 76.8014 32.235 78.2609 30.4336 78.2609Z" fill="#884E00"/>
<path d="M30.4352 99.9992C22.6439 99.9992 16.3047 93.6601 16.3047 85.8687C16.3047 78.0773 22.6438 71.7383 30.4352 71.7383C38.2266 71.7383 44.5656 78.0773 44.5656 85.8687C44.5656 93.6601 38.2266 99.9992 30.4352 99.9992Z" fill="#6A563D"/>
<path d="M44.566 85.8687C44.566 78.0775 38.227 71.7383 30.4355 71.7383V99.9992C38.227 99.9992 44.566 93.6601 44.566 85.8687Z" fill="#554431"/>
<path d="M30.4369 78.2617C26.242 78.2617 22.8281 81.6754 22.8281 85.8705C22.8281 90.0656 26.2418 93.4793 30.4369 93.4793C34.632 93.4793 38.0457 90.0656 38.0457 85.8705C38.0457 81.6754 34.6318 78.2617 30.4369 78.2617Z" fill="#D1E7F8"/>
<path d="M92.3904 72.827C92.3904 74.6277 90.9305 76.0879 89.1295 76.0879H49.9992C48.1984 76.0879 46.7383 74.6279 46.7383 72.827V33.6965C46.7383 31.8957 48.1982 30.4355 49.9992 30.4355H89.1297C90.9305 30.4355 92.3906 31.8955 92.3906 33.6965V72.827H92.3904Z" fill="#FFDAAA"/>
<path d="M89.1297 30.4355H69.5645V76.0877H89.1297C90.9305 76.0877 92.3906 74.6277 92.3906 72.8267V33.6965C92.3904 31.8955 90.9305 30.4355 89.1297 30.4355Z" fill="#FFC477"/>
<path d="M76.0877 50.0008H63.0441C61.2434 50.0008 59.7832 48.5408 59.7832 46.7398V30.4355H79.3484V46.7398C79.3486 48.5408 77.8887 50.0008 76.0877 50.0008Z" fill="#EE8700"/>
<path d="M69.5645 50.0008H76.0861C77.8869 50.0008 79.3471 48.5408 79.3471 46.7398V30.4355H69.5645V50.0008Z" fill="#CC7400"/>
<path d="M38.0443 85.8705C38.0443 81.6756 34.6307 78.2617 30.4355 78.2617V93.4791C34.6305 93.4793 38.0443 90.0656 38.0443 85.8705Z" fill="#C2DFF6"/>
</svg>
