<svg width="100" height="100" viewBox="0 0 100 100" fill="none" xmlns="http://www.w3.org/2000/svg">
<path d="M83.6947 33.6947H64.1294C63.2644 33.6947 62.4353 33.3507 61.824 32.7392L45.5197 16.4349C44.246 15.1623 44.246 13.0966 45.5197 11.8238L55.3023 2.04116C56.5759 0.767529 58.6396 0.767529 59.9134 2.04116L86.0003 28.1281C86.9333 29.0601 87.2124 30.4632 86.7074 31.682C86.2029 32.9007 85.014 33.6947 83.6947 33.6947Z" fill="#51951F"/>
<path d="M65.4809 27.173L52.4375 14.1295L57.608 8.95898L75.8219 27.173H65.4809Z" fill="#6DC82A"/>
<path d="M64.1322 33.6947H11.9582C10.6389 33.6947 9.45002 32.9007 8.94592 31.682C8.44064 30.4634 8.71974 29.0601 9.65295 28.1281L35.7399 2.04116C37.0135 0.767529 39.0772 0.767529 40.351 2.04116L66.4379 28.1281C67.3709 29.0601 67.65 30.4632 67.1449 31.682C66.6405 32.9007 65.4516 33.6947 64.1322 33.6947Z" fill="#6FA945"/>
<path d="M19.8301 27.173L38.0441 8.95898L56.258 27.173H19.8301Z" fill="#91DC5A"/>
<path d="M90.2174 98.9131H3.26094C1.45957 98.9131 0 97.4535 0 95.6522V30.4348C0 28.6334 1.45957 27.1738 3.26094 27.1738H90.2174C95.6117 27.1738 100 31.5621 100 36.9564V89.1303C100 94.5248 95.6117 98.9131 90.2174 98.9131Z" fill="#884E00"/>
<path d="M77.1738 98.9131H3.26094C1.45957 98.9131 0 97.4535 0 95.6522V30.4348C0 28.6334 1.45957 27.1738 3.26094 27.1738H77.1738C82.5682 27.1738 86.9565 31.5621 86.9565 36.9564V50C86.9565 51.8014 85.4969 53.2609 83.6955 53.2609H70.652C65.2576 53.2609 60.8693 57.6492 60.8693 63.0436C60.8693 68.4379 65.2576 72.8262 70.652 72.8262H83.6955C85.4969 72.8262 86.9565 74.2857 86.9565 76.0871V89.1307C86.9565 94.5248 82.5682 98.9131 77.1738 98.9131Z" fill="#AA6100"/>
<path d="M96.7389 79.3469H70.652C61.6613 79.3469 54.3477 72.0332 54.3477 63.0426C54.3477 54.052 61.6613 46.7383 70.652 46.7383H96.7389C98.5402 46.7383 99.9998 48.1979 99.9998 49.9992V76.0861C99.9998 77.8873 98.5402 79.3469 96.7389 79.3469Z" fill="#554431"/>
<path d="M99.9998 49.9992C99.9998 48.1979 98.5402 46.7383 96.7389 46.7383H70.652C61.6613 46.7383 54.3477 54.0519 54.3477 63.0426H99.9998V49.9992Z" fill="#6A563D"/>
<path d="M60.8691 63.0443C60.8691 57.65 65.2574 53.2617 70.6518 53.2617C76.0461 53.2617 80.4344 57.65 80.4344 63.0443C80.4344 68.4387 76.0461 72.8269 70.6518 72.8269C65.2574 72.8269 60.8691 68.4387 60.8691 63.0443Z" fill="#FFDA44"/>
<path d="M70.6518 72.8256C76.0461 72.8256 80.4344 68.4373 80.4344 63.043H60.8691C60.8691 68.4373 65.2574 72.8256 70.6518 72.8256Z" fill="#FFA733"/>
</svg>
