<svg width="20" height="20" viewBox="0 0 20 20" fill="none" xmlns="http://www.w3.org/2000/svg">
<path d="M4.16536 10.8332H14.0487L11.0237 14.4665C10.9537 14.5508 10.9009 14.648 10.8684 14.7527C10.836 14.8573 10.8245 14.9673 10.8345 15.0764C10.8548 15.2968 10.9619 15.5001 11.132 15.6415C11.3022 15.783 11.5216 15.851 11.742 15.8307C11.9623 15.8104 12.1656 15.7034 12.307 15.5332L16.4737 10.5332C16.5017 10.4934 16.5268 10.4516 16.5487 10.4082C16.5487 10.3665 16.5904 10.3415 16.607 10.2998C16.6448 10.2043 16.6646 10.1026 16.6654 9.99984C16.6646 9.8971 16.6448 9.79539 16.607 9.69984C16.607 9.65817 16.5654 9.63317 16.5487 9.59151C16.5268 9.54806 16.5017 9.50628 16.4737 9.46651L12.307 4.46651C12.2287 4.37244 12.1306 4.29679 12.0197 4.24494C11.9088 4.19308 11.7878 4.16631 11.6654 4.16651C11.4707 4.16613 11.282 4.23394 11.132 4.35817C11.0476 4.42813 10.9779 4.51405 10.9268 4.611C10.8756 4.70796 10.8441 4.81405 10.8341 4.9232C10.824 5.03234 10.8356 5.1424 10.8681 5.24707C10.9007 5.35174 10.9535 5.44897 11.0237 5.53317L14.0487 9.16651H4.16536C3.94435 9.16651 3.73239 9.2543 3.57611 9.41058C3.41983 9.56686 3.33203 9.77882 3.33203 9.99984C3.33203 10.2209 3.41983 10.4328 3.57611 10.5891C3.73239 10.7454 3.94435 10.8332 4.16536 10.8332Z" fill="#212429"/>
</svg>
