<svg width="49" height="49" viewBox="0 0 49 49" fill="none" xmlns="http://www.w3.org/2000/svg">
<g clip-path="url(#clip0)">
<path d="M31.4266 4.00313L8.24435 10.2148C7.73199 10.3521 7.29516 10.6873 7.02994 11.1466C6.76472 11.606 6.69285 12.1519 6.83014 12.6643L15.1123 43.5739C15.2496 44.0863 15.5848 44.5231 16.0442 44.7883C16.5036 45.0535 17.0495 45.1254 17.5618 44.9881L40.7441 38.7765C41.2564 38.6392 41.6933 38.304 41.9585 37.8446C42.2237 37.3852 42.2956 36.8393 42.1583 36.327L33.8761 5.41734C33.7388 4.90498 33.4036 4.46814 32.9442 4.20293C32.4848 3.93771 31.9389 3.86584 31.4266 4.00313ZM37.7769 35.4304L18.4584 40.6068L11.2115 13.5608L30.53 8.38447L37.7769 35.4304ZM27.7016 13.2834L16.1105 16.3893L17.1457 20.253L28.7368 17.1472L27.7016 13.2834ZM31.8427 28.7383L20.2516 31.8441L21.2868 35.7078L32.8779 32.602L31.8427 28.7383ZM29.7721 21.0109L18.181 24.1167L19.2163 27.9804L30.8074 24.8746L29.7721 21.0109Z" fill="white"/>
</g>
<defs>
<clipPath id="clip0">
<rect width="40" height="40" fill="white" transform="translate(0 10.3535) rotate(-15)"/>
</clipPath>
</defs>
</svg>
