<svg width="49" height="49" viewBox="0 0 49 49" fill="none" xmlns="http://www.w3.org/2000/svg">
<g clip-path="url(#clip0)">
<path d="M6.23941 20.7637C5.89619 19.4828 6.07587 18.118 6.73891 16.9696C7.40195 15.8212 8.49404 14.9832 9.77494 14.64L32.3132 8.60088C33.5941 8.25766 34.9589 8.43734 36.1073 9.10038C37.2557 9.76342 38.0937 10.8555 38.4369 12.1364L42.7506 28.2352C43.0938 29.5161 42.9141 30.8808 42.2511 32.0293C41.588 33.1777 40.496 34.0157 39.2151 34.3589L16.6768 40.398C15.3959 40.7412 14.0311 40.5615 12.8827 39.8985C11.7343 39.2355 10.8963 38.1434 10.5531 36.8625L6.23941 20.7637ZM10.6377 17.8597C10.2107 17.9741 9.84668 18.2535 9.62566 18.6363C9.40465 19.0191 9.34476 19.474 9.45916 19.901L9.89053 21.5109L35.6485 14.609L35.2172 12.9991C35.1028 12.5722 34.8234 12.2081 34.4406 11.9871C34.0578 11.7661 33.6029 11.7062 33.1759 11.8206L10.6377 17.8597ZM36.5113 17.8288L10.7533 24.7306L13.7728 35.9997C13.8872 36.4267 14.1665 36.7907 14.5494 37.0118C14.9322 37.2328 15.3871 37.2927 15.8141 37.1783L38.3523 31.1391C38.7793 31.0247 39.1433 30.7454 39.3643 30.3626C39.5853 29.9798 39.6452 29.5249 39.5308 29.0979L36.5113 17.8288ZM15.2671 28.6975C15.1527 28.2705 15.2126 27.8156 15.4336 27.4328C15.6546 27.05 16.0186 26.7707 16.4456 26.6563L24.495 24.4994C24.922 24.385 25.3769 24.4449 25.7597 24.6659C26.1425 24.887 26.4218 25.251 26.5362 25.678C26.6506 26.1049 26.5908 26.5598 26.3697 26.9426C26.1487 27.3255 25.7847 27.6048 25.3577 27.7192L17.3083 29.876C16.8814 29.9904 16.4265 29.9305 16.0436 29.7095C15.6608 29.4885 15.3815 29.1245 15.2671 28.6975Z" fill="#212429"/>
</g>
<defs>
<clipPath id="clip0">
<rect width="40" height="40" fill="white" transform="translate(0 10.3574) rotate(-15)"/>
</clipPath>
</defs>
</svg>
