<svg width="17" height="18" viewBox="0 0 17 18" fill="none" xmlns="http://www.w3.org/2000/svg">
<path fill-rule="evenodd" clip-rule="evenodd" d="M8.5 17.2002C10.7543 17.2002 12.9163 16.3047 14.5104 14.7106C16.1045 13.1165 17 10.9545 17 8.7002C17 6.44586 16.1045 4.28385 14.5104 2.68979C12.9163 1.09573 10.7543 0.200195 8.5 0.200195C6.24566 0.200195 4.08365 1.09573 2.48959 2.68979C0.895533 4.28385 0 6.44586 0 8.7002C0 10.9545 0.895533 13.1165 2.48959 14.7106C4.08365 16.3047 6.24566 17.2002 8.5 17.2002ZM12.4387 7.32638C12.6322 7.12599 12.7393 6.8576 12.7369 6.57902C12.7345 6.30044 12.6227 6.03395 12.4257 5.83695C12.2287 5.63995 11.9623 5.52821 11.6837 5.52579C11.4051 5.52337 11.1367 5.63047 10.9363 5.82401L7.4375 9.32282L6.06369 7.94901C5.8633 7.75547 5.59491 7.64837 5.31632 7.65079C5.03774 7.65321 4.77125 7.76495 4.57426 7.96195C4.37726 8.15895 4.26552 8.42544 4.2631 8.70402C4.26068 8.9826 4.36777 9.25099 4.56131 9.45138L6.68631 11.5764C6.88556 11.7756 7.15576 11.8875 7.4375 11.8875C7.71924 11.8875 7.98944 11.7756 8.18869 11.5764L12.4387 7.32638Z" fill="#3CBF32"/>
</svg>
