<svg width="17" height="18" viewBox="0 0 17 18" fill="none" xmlns="http://www.w3.org/2000/svg">
<path fill-rule="evenodd" clip-rule="evenodd" d="M8.5 17.1992C10.7543 17.1992 12.9163 16.3037 14.5104 14.7096C16.1045 13.1156 17 10.9536 17 8.69922C17 6.44488 16.1045 4.28287 14.5104 2.68881C12.9163 1.09475 10.7543 0.199219 8.5 0.199219C6.24566 0.199219 4.08365 1.09475 2.48959 2.68881C0.895533 4.28287 0 6.44488 0 8.69922C0 10.9536 0.895533 13.1156 2.48959 14.7096C4.08365 16.3037 6.24566 17.1992 8.5 17.1992ZM12.4387 7.32541C12.6322 7.12502 12.7393 6.85663 12.7369 6.57804C12.7345 6.29946 12.6227 6.03297 12.4257 5.83597C12.2287 5.63898 11.9623 5.52724 11.6837 5.52482C11.4051 5.52239 11.1367 5.62949 10.9363 5.82303L7.4375 9.32184L6.06369 7.94803C5.8633 7.75449 5.59491 7.64739 5.31632 7.64982C5.03774 7.65224 4.77125 7.76398 4.57426 7.96097C4.37726 8.15797 4.26552 8.42446 4.2631 8.70304C4.26068 8.98163 4.36777 9.25002 4.56131 9.45041L6.68631 11.5754C6.88556 11.7746 7.15576 11.8865 7.4375 11.8865C7.71924 11.8865 7.98944 11.7746 8.18869 11.5754L12.4387 7.32541Z" fill="white"/>
</svg>
